<?xml version="1.0" encoding="UTF-8"?>
<svg id="Layer_1" data-name="Layer 1" xmlns="http://www.w3.org/2000/svg" viewBox="0 0 19.01 16.59">
  <path d="M17.55,1.47c-1.95-1.95-5.12-1.95-7.08,0h0l-.96,.97-.96-.96C6.59-.49,3.42-.49,1.47,1.47-.49,3.42-.49,6.59,1.47,8.54l.96,.96,7.08,7.08,7.08-7.08,.97-.96c1.95-1.95,1.95-5.12,0-7.08h0Z" fill="#d6cccc"/>
  <path d="M17.55,1.47c-1.95-1.95-5.12-1.95-7.08,0h0l-.96,.97-.96-.96C6.59-.49,3.42-.49,1.47,1.47-.49,3.42-.49,6.59,1.47,8.54l.96,.96,7.08,7.08,7.08-7.08,.97-.96c1.95-1.95,1.95-5.12,0-7.08h0Z" fill="#d6cccc"/>
</svg>